<svg width="32" height="32" viewBox="0 0 32 32" fill="none" xmlns="http://www.w3.org/2000/svg">
<path fill-rule="evenodd" clip-rule="evenodd" d="M8.04678 21.898C10.4123 23.9563 13.0906 25 16.0071 25C18.4964 25 20.8259 24.2317 22.9305 22.7169C23.3498 22.4148 23.4439 21.8318 23.1403 21.4145C22.8369 20.9973 22.251 20.9036 21.8315 21.2055C20.0534 22.4855 18.0938 23.1345 16.0071 23.1345C10.3398 23.1345 7.0961 18.3875 5.96469 16.3465C5.84604 16.1324 5.84714 15.877 5.96762 15.6635C7.12137 13.6194 10.4092 8.86518 16.0071 8.86518C21.6056 8.86518 24.8835 13.6201 26.033 15.6644C26.1528 15.8774 26.1539 16.1321 26.036 16.3458C25.8027 16.7681 25.4118 17.4239 24.8729 18.151C24.5658 18.5657 24.6544 19.1496 25.0712 19.4553C25.4879 19.7608 26.0748 19.6726 26.3819 19.258C26.9819 18.4484 27.4184 17.716 27.679 17.2441C28.1106 16.4629 28.1067 15.532 27.6691 14.7537C27.0976 13.7373 25.8514 11.7819 23.9262 10.1069C21.5572 8.04536 18.8927 7 16.0071 7C13.1226 7 10.4572 8.04445 8.08487 10.1046C6.15695 11.779 4.90671 13.734 4.33304 14.7502C3.89249 15.5307 3.88883 16.4642 4.32315 17.2476C4.8873 18.2653 6.12125 20.2226 8.04678 21.898ZM16.4999 11C19.5327 11 22 13.4673 22 16.5001C22 19.5329 19.5327 22 16.4999 22C13.4673 22 11 19.5329 11 16.5001C11 13.4673 13.4671 11 16.4999 11ZM20 16.5C20 18.4299 18.4299 20 16.4999 20C14.5701 20 13 18.4299 13 16.5C13 14.5701 14.5701 13 16.4999 13C18.4299 13 20 14.5701 20 16.5ZM16.3804 15.4484C16.3947 16.0632 16.8838 16.5761 17.4974 16.6172C17.5208 16.6188 17.5441 16.6197 17.5672 16.6199C17.9164 16.6236 18.1197 17.0106 17.9234 17.2992C17.6137 17.7543 17.0754 18.0414 16.4736 17.9951C15.6945 17.9353 15.0649 17.3055 15.0049 16.5264C14.9586 15.9246 15.2457 15.3864 15.7009 15.0766C15.9897 14.8802 16.3764 15.084 16.3801 15.4332C16.3801 15.4382 16.3803 15.4434 16.3804 15.4484Z" fill="#A7A6C5"/>
</svg>
