<svg width="32" height="32" viewBox="0 0 32 32" fill="none" xmlns="http://www.w3.org/2000/svg">
<path fill-rule="evenodd" clip-rule="evenodd" d="M5.59723 4.27411C5.23175 3.90863 4.6394 3.90863 4.27411 4.27411C3.90863 4.6394 3.90863 5.23193 4.27411 5.59723L8.45624 9.77936C6.37506 11.4907 5.03088 13.5583 4.3772 14.7221C3.93756 15.5049 3.9339 16.4415 4.36749 17.2274C4.93054 18.2482 6.16229 20.2118 8.08417 21.8925C10.4301 23.9442 13.0842 24.9903 15.9734 25.0038C15.9766 25.0038 15.9797 25.0042 15.9829 25.0043L15.9859 25.0044L16.0101 25.0042L16.0297 25.0044C18.1495 25.0044 20.1572 24.4415 22.0071 23.3304L26.3544 27.6776C26.5372 27.8603 26.7765 27.9517 27.016 27.9517C27.2555 27.9517 27.4948 27.8603 27.6776 27.6776C28.043 27.3123 28.043 26.7197 27.6776 26.3544L5.59723 4.27411ZM12.85 14.1732L14.2061 15.5292C14.1598 15.7178 14.1413 15.9174 14.1572 16.1238C14.2272 17.0347 14.9638 17.7712 15.8748 17.8413C16.0811 17.8571 16.2807 17.8386 16.4693 17.7924L17.8257 19.1489C16.4277 19.9474 14.6295 19.7423 13.4427 18.5558C12.2621 17.3753 12.0548 15.571 12.85 14.1732ZM6.00885 15.6384C5.88855 15.8526 5.88745 16.1088 6.00592 16.3235C7.13403 18.3688 10.366 23.1228 16.0115 23.1329C17.6318 23.1287 19.178 22.7293 20.621 21.9442L19.1809 20.504C18.2324 21.1689 17.1276 21.4998 16.024 21.4998C14.6097 21.4998 13.1976 20.957 12.1196 19.8789C10.2102 17.9697 9.98297 14.9805 11.4947 12.8178L9.78613 11.1093C7.85931 12.6464 6.6098 14.5683 6.00885 15.6384ZM12.3154 8.55823C12.1749 8.06091 12.4641 7.54401 12.9614 7.40338C14.0479 7.0965 15.0515 6.94708 16.0295 6.94708C18.9097 6.94708 21.5692 7.99573 23.934 10.0639C25.8553 11.7443 27.0993 13.7059 27.6697 14.7256C28.1066 15.5062 28.1102 16.4402 27.6796 17.2239C27.6426 17.2913 27.5977 17.3531 27.5466 17.4083C27.1348 18.1335 26.4813 19.1599 25.5759 20.2213C25.3907 20.4383 25.128 20.5498 24.8636 20.5498C24.6488 20.5498 24.4329 20.4764 24.2568 20.326C23.8636 19.9906 23.817 19.4001 24.1522 19.007C25.0342 17.9731 25.6491 16.9771 26.0095 16.3235C26.0344 16.2785 26.0627 16.236 26.0941 16.1961C26.1526 16.0125 26.1334 15.8121 26.0367 15.6393C24.8894 13.5883 21.6175 8.81842 16.0295 8.81842C15.226 8.81842 14.3889 8.94458 13.47 9.20404C12.9729 9.34448 12.4558 9.05554 12.3154 8.55823ZM19.926 12.0726C18.913 11.0598 17.5668 10.486 16.1351 10.457C15.6171 10.4466 15.1912 10.8568 15.1806 11.3735C15.1702 11.89 15.5805 12.3174 16.097 12.3278C17.0433 12.347 17.9332 12.7263 18.6027 13.3957C19.2919 14.0849 19.6714 15.0012 19.6714 15.9758C19.6714 16.4926 20.0902 16.9113 20.6069 16.9113C21.1238 16.9113 21.5426 16.4926 21.5426 15.9758C21.5426 14.5013 20.9684 13.1152 19.926 12.0726Z" fill="#A7A6C5"/>
</svg>
